<svg width="191" height="68" viewBox="0 0 191 68" version="1.1" xmlns="http://www.w3.org/2000/svg" xmlns:xlink="http://www.w3.org/1999/xlink">
<title>Mask Group</title>
<desc>Created using Figma</desc>
<g id="Canvas" transform="translate(-2013 -1866)">
<g id="Mask Group" opacity="0.6">
<mask id="mask0_alpha" mask-type="alpha">
<g id="Rectangle 6">
<use xlink:href="#path0_fill" transform="translate(2010 1815)" fill="#C4C4C4"/>
</g>
</mask>
<g id="Group 6.2" mask="url(#mask0_alpha)">
<g id="Vector">
<use xlink:href="#path1_stroke" transform="matrix(0.787633 -0.616145 0.620333 0.784338 2017.1 1940.75)" fill="#FFFFFF"/>
</g>
<g id="Vector">
<use xlink:href="#path1_stroke" transform="matrix(0.787633 -0.616145 0.620333 0.784338 2026.69 1952.88)" fill="#FFFFFF"/>
</g>
<g id="Vector">
<use xlink:href="#path1_stroke" transform="matrix(0.787633 -0.616145 0.620333 0.784338 2036.29 1965.01)" fill="#FFFFFF"/>
</g>
<g id="Vector">
<use xlink:href="#path1_stroke" transform="matrix(0.787633 -0.616145 0.620333 0.784338 2045.88 1977.14)" fill="#FFFFFF"/>
</g>
<g id="Vector">
<use xlink:href="#path1_stroke" transform="matrix(0.787633 -0.616145 0.620333 0.784338 2055.48 1989.28)" fill="#FFFFFF"/>
</g>
<g id="Vector">
<use xlink:href="#path1_stroke" transform="matrix(0.787633 -0.616145 0.620333 0.784338 2065.07 2001.41)" fill="#FFFFFF"/>
</g>
</g>
</g>
</g>
<defs>
<path id="path0_fill" d="M 0 0L 217 0L 217 119L 0 119L 0 0Z"/>
<path id="path1_stroke" d="M 0 -3.5C -1.933 -3.5 -3.5 -1.933 -3.5 0C -3.5 1.933 -1.933 3.5 0 3.5L 0 -3.5ZM 77.3986 21.6065L 75.8271 24.7339L 77.3986 21.6065ZM 143.64 24.6416C 145.317 23.679 145.895 21.5398 144.933 19.8635C 143.97 18.1872 141.831 17.6087 140.154 18.5714L 143.64 24.6416ZM 0 3.5C 22.229 3.5 48.6007 11.0529 75.8271 24.7339L 78.9701 18.4791C 51.1576 4.50372 23.6855 -3.5 0 -3.5L 0 3.5ZM 75.8271 24.7339C 104.666 39.2248 132.88 30.8211 143.64 24.6416L 140.154 18.5714C 130.849 23.9153 105.171 31.6445 78.9701 18.4791L 75.8271 24.7339Z"/>
</defs>
</svg>
