<svg width="642" height="393" viewBox="0 0 642 393" version="1.1" xmlns="http://www.w3.org/2000/svg" xmlns:xlink="http://www.w3.org/1999/xlink">
<title>inicio</title>
<desc>Created using Figma</desc>
<g id="Canvas" transform="translate(-2464 -1137)">
<g id="patron/inicio">
<mask id="mask0_alpha" mask-type="alpha">
<g id="Rectangle 5">
<use xlink:href="#path0_fill" transform="translate(2464 1079)" fill="#C4C4C4"/>
</g>
</mask>
<g id="Group 2" opacity="0.75" mask="url(#mask0_alpha)">
<g id="Vector">
<use xlink:href="#path1_stroke" transform="translate(2459.17 1141.3)" fill="#FFFFFF"/>
</g>
<g id="Vector">
<use xlink:href="#path1_stroke" transform="translate(2459.17 1165.37)" fill="#FFFFFF"/>
</g>
<g id="Vector">
<use xlink:href="#path1_stroke" transform="translate(2459.17 1190.48)" fill="#FFFFFF"/>
</g>
<g id="Vector">
<use xlink:href="#path1_stroke" transform="translate(2459.17 1214.54)" fill="#FFFFFF"/>
</g>
<g id="Vector">
<use xlink:href="#path2_stroke" transform="translate(2459.17 1239.65)" fill="#FFFFFF"/>
</g>
<g id="Vector">
<use xlink:href="#path1_stroke" transform="translate(2459.17 1263.47)" fill="#FFFFFF"/>
</g>
<g id="Vector">
<use xlink:href="#path1_stroke" transform="translate(2459.17 1287.53)" fill="#FFFFFF"/>
</g>
<g id="Vector">
<use xlink:href="#path1_stroke" transform="translate(2459.17 1312.64)" fill="#FFFFFF"/>
</g>
<g id="Vector">
<use xlink:href="#path1_stroke" transform="translate(2459.17 1336.71)" fill="#FFFFFF"/>
</g>
<g id="Vector">
<use xlink:href="#path2_stroke" transform="translate(2459.17 1361.82)" fill="#FFFFFF"/>
</g>
<g id="Vector">
<use xlink:href="#path3_stroke" transform="translate(2459.17 1385.63)" fill="#FFFFFF"/>
</g>
<g id="Vector">
<use xlink:href="#path1_stroke" transform="translate(2459.17 1409.7)" fill="#FFFFFF"/>
</g>
<g id="Vector">
<use xlink:href="#path1_stroke" transform="translate(2459.17 1434.81)" fill="#FFFFFF"/>
</g>
<g id="Vector">
<use xlink:href="#path1_stroke" transform="translate(2459.17 1458.87)" fill="#FFFFFF"/>
</g>
<g id="Vector">
<use xlink:href="#path2_stroke" transform="translate(2459.17 1483.98)" fill="#FFFFFF"/>
</g>
<g id="Vector">
<use xlink:href="#path1_stroke" transform="translate(2459.17 1507.8)" fill="#FFFFFF"/>
</g>
<g id="Vector">
<use xlink:href="#path1_stroke" transform="translate(2459.17 1531.86)" fill="#FFFFFF"/>
</g>
</g>
</g>
</g>
<defs>
<path id="path0_fill" d="M 0 0L 667 8.18347L 667 451L 0 451L 0 0Z"/>
<path id="path1_stroke" d="M 1.45607 16.5686C -0.301715 15.7645 -2.37858 16.5375 -3.18275 18.2953C -3.98691 20.0531 -3.21385 22.13 -1.45607 22.9341L 1.45607 16.5686ZM 72.2388 35.3035L 72.7664 31.8435L 71.7852 31.8331L 72.2388 35.3035ZM 140.228 19.7514L 138.772 16.5686L 140.228 19.7514ZM 216.716 0.311162L 216.716 3.81116L 217.007 3.79912L 216.716 0.311162ZM 305.953 19.7514L 304.268 22.8194L 305.953 19.7514ZM 660.27 22.853C 661.983 21.9574 662.645 19.8427 661.75 18.1297C 660.854 16.4167 658.739 15.7541 657.026 16.6497L 660.27 22.853ZM -1.45607 22.9341C 33.061 38.7252 62.0495 40.1652 72.6924 38.774L 71.7852 31.8331C 62.5979 33.0339 34.9285 31.8818 1.45607 16.5686L -1.45607 22.9341ZM 71.7112 38.7635C 81.0613 40.1894 107.256 38.6848 141.684 22.9341L 138.772 16.5686C 105.211 31.9223 80.4137 33.0097 72.7664 31.8435L 71.7112 38.7635ZM 141.684 22.9341C 175.217 7.59323 205.882 3.81116 216.716 3.81116L 216.716 -3.18884C 204.888 -3.18884 173.229 0.805174 138.772 16.5686L 141.684 22.9341ZM 217.007 3.79912C 232.132 2.54095 271.051 4.58361 304.268 22.8194L 307.637 16.6833C 272.865 -2.40607 232.462 -4.51065 216.426 -3.17679L 217.007 3.79912ZM 304.268 22.8194C 328.125 35.9167 358.798 38.8035 373.942 38.8035L 373.942 31.8035C 359.269 31.8035 329.982 28.9503 307.637 16.6833L 304.268 22.8194ZM 373.942 38.8035C 392.706 38.8035 413.003 38.7786 447.637 22.9341L 444.725 16.5686C 411.369 31.8284 392.198 31.8035 373.942 31.8035L 373.942 38.8035ZM 447.637 22.9341C 481.368 7.50243 497.996 3.81116 518.42 3.81116L 518.42 -3.18884C 496.638 -3.18884 478.983 0.895979 444.725 16.5686L 447.637 22.9341ZM 518.42 3.81116C 540.658 3.78226 566.534 10.6056 593.452 22.9341L 596.364 16.5686C 568.89 4.01368 541.556 -3.15993 518.42 -3.18884L 518.42 3.81116ZM 593.452 22.9341C 621.871 35.9356 649.657 28.4015 660.27 22.853L 657.026 16.6497C 647.808 21.4693 622.336 28.4506 596.364 16.5686L 593.452 22.9341Z"/>
<path id="path2_stroke" d="M 1.45607 16.5686C -0.301715 15.7645 -2.37858 16.5375 -3.18275 18.2953C -3.98691 20.0531 -3.21385 22.13 -1.45607 22.9341L 1.45607 16.5686ZM 72.2388 35.3035L 72.7664 31.8435L 71.7852 31.8331L 72.2388 35.3035ZM 216.716 0.311162L 216.716 3.81116L 217.007 3.79912L 216.716 0.311162ZM 305.953 19.7514L 307.637 16.6833L 305.953 19.7514ZM 660.27 22.853C 661.983 21.9574 662.645 19.8427 661.75 18.1297C 660.854 16.4167 658.739 15.7541 657.026 16.6497L 660.27 22.853ZM -1.45607 22.9341C 33.061 38.7252 62.0495 40.1652 72.6924 38.774L 71.7852 31.8331C 62.5979 33.0339 34.9285 31.8818 1.45607 16.5686L -1.45607 22.9341ZM 71.7112 38.7635C 81.0613 40.1894 107.256 38.6848 141.684 22.9341L 138.772 16.5686C 105.211 31.9223 80.4137 33.0097 72.7664 31.8435L 71.7112 38.7635ZM 141.684 22.9341C 175.217 7.59323 205.882 3.81116 216.716 3.81116L 216.716 -3.18884C 204.888 -3.18884 173.229 0.805174 138.772 16.5686L 141.684 22.9341ZM 217.007 3.79912C 232.132 2.54095 271.051 4.58361 304.268 22.8194L 307.637 16.6833C 272.865 -2.40607 232.462 -4.51065 216.426 -3.17679L 217.007 3.79912ZM 304.268 22.8194C 328.125 35.9167 358.798 38.8035 373.942 38.8035L 373.942 31.8035C 359.269 31.8035 329.982 28.9503 307.637 16.6833L 304.268 22.8194ZM 373.942 38.8035C 392.706 38.8035 413.003 38.7786 447.637 22.9341L 444.725 16.5686C 411.369 31.8284 392.198 31.8035 373.942 31.8035L 373.942 38.8035ZM 447.637 22.9341C 481.368 7.50243 497.996 3.81116 518.42 3.81116L 518.42 -3.18884C 496.638 -3.18884 478.983 0.895979 444.725 16.5686L 447.637 22.9341ZM 518.42 3.81116C 540.658 3.78226 566.534 10.6056 593.452 22.9341L 596.364 16.5686C 568.89 4.01368 541.556 -3.15993 518.42 -3.18884L 518.42 3.81116ZM 593.452 22.9341C 621.871 35.9356 649.657 28.4015 660.27 22.853L 657.026 16.6497C 647.808 21.4693 622.336 28.4506 596.364 16.5686L 593.452 22.9341Z"/>
<path id="path3_stroke" d="M 1.45607 16.5686C -0.301715 15.7645 -2.37858 16.5375 -3.18275 18.2953C -3.98691 20.0531 -3.21385 22.13 -1.45607 22.9341L 1.45607 16.5686ZM 72.2388 35.3035L 72.7664 31.8435L 71.7852 31.8331L 72.2388 35.3035ZM 216.716 0.311162L 216.716 3.81116L 217.007 3.79912L 216.716 0.311162ZM 305.953 19.7514L 304.268 22.8194L 305.953 19.7514ZM 660.27 22.853C 661.983 21.9574 662.645 19.8427 661.75 18.1297C 660.854 16.4167 658.739 15.7541 657.026 16.6497L 660.27 22.853ZM -1.45607 22.9341C 33.061 38.7252 62.0495 40.1652 72.6924 38.774L 71.7852 31.8331C 62.5979 33.0339 34.9285 31.8818 1.45607 16.5686L -1.45607 22.9341ZM 71.7112 38.7635C 81.0613 40.1894 107.256 38.6848 141.684 22.9341L 138.772 16.5686C 105.211 31.9223 80.4137 33.0097 72.7664 31.8435L 71.7112 38.7635ZM 141.684 22.9341C 175.217 7.59323 205.882 3.81116 216.716 3.81116L 216.716 -3.18884C 204.888 -3.18884 173.229 0.805174 138.772 16.5686L 141.684 22.9341ZM 217.007 3.79912C 232.132 2.54095 271.051 4.58361 304.268 22.8194L 307.637 16.6833C 272.865 -2.40607 232.462 -4.51065 216.426 -3.17679L 217.007 3.79912ZM 304.268 22.8194C 328.125 35.9167 358.798 38.8035 373.942 38.8035L 373.942 31.8035C 359.269 31.8035 329.982 28.9503 307.637 16.6833L 304.268 22.8194ZM 373.942 38.8035C 392.706 38.8035 413.003 38.7786 447.637 22.9341L 444.725 16.5686C 411.369 31.8284 392.198 31.8035 373.942 31.8035L 373.942 38.8035ZM 447.637 22.9341C 481.368 7.50243 497.996 3.81116 518.42 3.81116L 518.42 -3.18884C 496.638 -3.18884 478.983 0.895979 444.725 16.5686L 447.637 22.9341ZM 518.42 3.81116C 540.658 3.78226 566.534 10.6056 593.452 22.9341L 596.364 16.5686C 568.89 4.01368 541.556 -3.15993 518.42 -3.18884L 518.42 3.81116ZM 593.452 22.9341C 621.871 35.9356 649.657 28.4015 660.27 22.853L 657.026 16.6497C 647.808 21.4693 622.336 28.4506 596.364 16.5686L 593.452 22.9341Z"/>
</defs>
</svg>
