<svg xmlns="http://www.w3.org/2000/svg" viewBox="0 0 33 33"><defs><style>.cls-1{fill-rule:evenodd;}</style></defs><title>Asset 3</title><g id="Layer_2" data-name="Layer 2"><g id="Footer"><path d="M16.5,0A16.5,16.5,0,1,1,4.83,4.83,16.44,16.44,0,0,1,16.5,0ZM27.25,5.75A15.21,15.21,0,1,0,5.75,27.25,15.21,15.21,0,1,0,27.25,5.75Z"/><path class="cls-1" d="M10,17h2.7a1.46,1.46,0,0,1,1.63,1.41c0,.6-.47,1.31-1.07,1.31H10Zm8.68-5.42h4.86v1.62H18.67ZM22.89,17H19.32a1.79,1.79,0,0,1,3.56,0ZM19.2,18.12h6v-.26a3.94,3.94,0,0,0-4.06-4.07A3.94,3.94,0,0,0,17,17.85a3.93,3.93,0,0,0,4.07,4.07,3.7,3.7,0,0,0,4-3.26h-2.2a1.77,1.77,0,0,1-1.77,1.64,2.13,2.13,0,0,1-1.91-2.17Zm-2.69.54a2.73,2.73,0,0,0-1.85-2.55A2.75,2.75,0,0,0,16,13.79a2.71,2.71,0,0,0-2.7-2.7H7.82V21.92h5.44a3.27,3.27,0,0,0,3.25-3.26Zm-3.82-3.22H10V13.24h2.7a1.1,1.1,0,1,1,0,2.19Z"/></g></g></svg>