<svg xmlns="http://www.w3.org/2000/svg" xmlns:xlink="http://www.w3.org/1999/xlink" viewBox="0 0 32.89 32.88"><defs><style>.cls-1{fill:none;}.cls-2{clip-path:url(#clip-path);}</style><clipPath id="clip-path"><rect class="cls-1" x="6.34" y="7.47" width="20.36" height="16.71"/></clipPath></defs><title>Asset 2</title><g id="Layer_2" data-name="Layer 2"><g id="Footer"><path d="M16.45,0A16.44,16.44,0,1,1,4.82,4.81,16.4,16.4,0,0,1,16.45,0ZM27.16,5.73A15.15,15.15,0,1,0,31.6,16.44,15.12,15.12,0,0,0,27.16,5.73Z"/><g class="cls-2"><path d="M24.84,7.47H8.4A2.06,2.06,0,0,0,6.34,9.53V21.86A2.06,2.06,0,0,0,8.4,23.92H24.84a2.06,2.06,0,0,0,2.06-2.06V9.53a2.06,2.06,0,0,0-2.06-2.06Zm0,14.39H22.79v-9l-6.17,3.91-6.17-3.91v9H8.4V9.53H9.63l7,4.32,7-4.32h1.23Zm0,0"/></g></g></g></svg>