<svg xmlns="http://www.w3.org/2000/svg" xmlns:xlink="http://www.w3.org/1999/xlink" viewBox="0 0 32.44 32.43"><defs><style>.cls-1{fill:none;}.cls-2{fill:#262626;}.cls-3{clip-path:url(#clip-path);}.cls-4{fill-rule:evenodd;}</style><clipPath id="clip-path"><rect class="cls-1" x="9.36" y="7.83" width="14.38" height="16.5"/></clipPath></defs><title>Asset 5</title><g id="Layer_2" data-name="Layer 2"><g id="Footer"><path class="cls-2" d="M16.23,0A16.22,16.22,0,1,1,4.75,4.75,16.17,16.17,0,0,1,16.23,0ZM26.79,5.65a14.93,14.93,0,1,0,4.38,10.57A14.88,14.88,0,0,0,26.79,5.65Z"/><g class="cls-3"><path class="cls-4" d="M14.25,15.4V9.62c0-.4,0-.42.42-.42,1.62,0,3.24,0,4.85,0a1.4,1.4,0,0,1,1.38.85,4.83,4.83,0,0,1,.32.77c.14.46.24.92.38,1.38,0,.1.14.23.22.24a5.78,5.78,0,0,0,.77,0l.29-4.62A130.89,130.89,0,0,1,9.36,8c0,.29,0,.56,0,.82,0,.07.12.17.2.19.34.08.68.13,1,.19.8.15,1,.41,1,1.23,0,1.46.06,2.91.06,4.37,0,2.35,0,4.69-.05,7a3.4,3.4,0,0,1,0,.39.67.67,0,0,1-.44.56,3.15,3.15,0,0,1-.51.16l-1.25.25v1h.48c1.13,0,2.25-.11,3.38-.1,3.14,0,6.29.07,9.43.11.41,0,.4,0,.44-.39.12-1.08.26-2.16.39-3.24l.15-1.23a3.34,3.34,0,0,1-.46,0c-.31,0-.46.09-.57.37-.26.65-.54,1.29-.85,1.91a2.1,2.1,0,0,1-1.86,1.31c-1.46,0-2.91.07-4.37,0-.95,0-1.3-.48-1.3-1.43q0-2.28,0-4.55c0-.12,0-.23,0-.35l.11,0c1,0,2,0,3.05.06a1.06,1.06,0,0,1,1.12.81c.07.25.13.5.19.75.17.7.17.69.88.69.24,0,.3-.09.3-.32,0-1.7,0-3.41,0-5.12,0-.14,0-.29,0-.44-.27,0-.51,0-.75,0s-.27.07-.31.24c-.1.44-.2.87-.31,1.31a.88.88,0,0,1-1,.8c-.44,0-.87.08-1.31.09-.68,0-1.35,0-2.07,0Zm0,0"/></g></g></g></svg>