<svg xmlns="http://www.w3.org/2000/svg" viewBox="0 0 32.11 32.11"><defs><style>.cls-1{fill-rule:evenodd;}</style></defs><title>Asset 6</title><g id="Layer_2" data-name="Layer 2"><g id="Footer"><path d="M16.06,0A16.06,16.06,0,1,1,4.7,4.7,16,16,0,0,1,16.06,0ZM26.53,5.59a14.82,14.82,0,1,0,4.33,10.46A14.79,14.79,0,0,0,26.53,5.59Z"/><path class="cls-1" d="M17.28,12.78V11.46a.69.69,0,0,1,.72-.78h1.84V7.87H17.31a3.19,3.19,0,0,0-3.45,3.43v1.48H12.22v3.28h1.65v8.2h3.28v-8.2h2.43l.11-1.29.2-2Z"/></g></g></svg>