<svg xmlns="http://www.w3.org/2000/svg" viewBox="0 0 32.32 32.32"><defs><style>.cls-1{stroke:#000;stroke-miterlimit:10;stroke-width:0.5px;fill-rule:evenodd;}</style></defs><title>Asset 4</title><g id="Layer_2" data-name="Layer 2"><g id="Footer"><path d="M16.16,0A16.16,16.16,0,1,1,4.73,4.73,16.08,16.08,0,0,1,16.16,0ZM26.7,5.63a14.92,14.92,0,1,0,4.36,10.53A14.89,14.89,0,0,0,26.7,5.63Z"/><path class="cls-1" d="M12,16.16a4.14,4.14,0,1,1,4.13,4.14A4.14,4.14,0,0,1,12,16.16Zm8.41-8.1H11.89a3.84,3.84,0,0,0-3.83,3.83v8.55a3.85,3.85,0,0,0,3.83,3.83h8.55a3.84,3.84,0,0,0,3.83-3.83V11.89a3.83,3.83,0,0,0-3.83-3.83ZM11.89,9h8.55a2.88,2.88,0,0,1,2.87,2.87v8.55a2.88,2.88,0,0,1-2.87,2.87H11.89A2.88,2.88,0,0,1,9,20.44V11.89A2.88,2.88,0,0,1,11.89,9Zm9.4,1.21a.84.84,0,1,0,.84.84.84.84,0,0,0-.84-.84Zm.1,5.93a5.23,5.23,0,1,0-5.23,5.23,5.23,5.23,0,0,0,5.23-5.23Z"/></g></g></svg>