<svg xmlns="http://www.w3.org/2000/svg" viewBox="0 0 32.4 32.4"><defs><style>.cls-1{fill-rule:evenodd;}</style></defs><title>Asset 1</title><g id="Layer_2" data-name="Layer 2"><g id="Footer"><path d="M16.2,0A16.2,16.2,0,1,1,4.75,4.75,16.12,16.12,0,0,1,16.2,0ZM26.77,5.64A14.94,14.94,0,1,0,31.14,16.2,14.89,14.89,0,0,0,26.77,5.64Z"/><path class="cls-1" d="M16.59,7.94c-4.65,0-7,3.22-7,5.92a5.22,5.22,0,0,0,.18,1.43,3.14,3.14,0,0,0,1.83,2.21.33.33,0,0,0,.48-.23c.05-.17.15-.58.21-.76a.44.44,0,0,0-.13-.53,2.57,2.57,0,0,1-.54-1,3.25,3.25,0,0,1-.12-.88,4.58,4.58,0,0,1,4.83-4.55c2.63,0,4.08,1.55,4.08,3.63a8.52,8.52,0,0,1-.18,1.76c-.41,1.91-1.49,3.29-2.93,3.29a1.48,1.48,0,0,1-1.55-1.83c.14-.56.35-1.16.53-1.73A6.09,6.09,0,0,0,16.63,13a1.29,1.29,0,0,0-1.34-1.43c-1,0-1.89,1.06-1.89,2.46a3.87,3.87,0,0,0,.06.7,3.46,3.46,0,0,0,.25.81s-1.08,4.4-1.26,5.18a10.22,10.22,0,0,0,0,3.61c0,.11.16.13.23.05a10,10,0,0,0,1.78-3.1c.11-.43.69-2.62.69-2.62a2.8,2.8,0,0,0,2.39,1.19c2.56,0,4.46-1.86,5.08-4.56a8.6,8.6,0,0,0,.22-2c0-2.83-2.47-5.44-6.23-5.44Z"/></g></g></svg>